
<svg xmlns="http://www.w3.org/2000/svg" version="1.1" width="352px" height="239px" style="shape-rendering:geometricPrecision; text-rendering:geometricPrecision; image-rendering:optimizeQuality; fill-rule:evenodd; clip-rule:evenodd" >
<g><path style="opacity:1" fill="#ffffff" d="M -0.5,-0.5 C 116.833,-0.5 234.167,-0.5 351.5,-0.5C 351.5,79.1667 351.5,158.833 351.5,238.5C 234.167,238.5 116.833,238.5 -0.5,238.5C -0.5,158.833 -0.5,79.1667 -0.5,-0.5 Z"/></g>
<g><path style="opacity:1" fill="#ffffff" d="M 268.5,25.5 C 269.809,22.2223 271.642,19.2223 274,16.5C 273.221,20.0439 271.387,23.0439 268.5,25.5 Z"/></g>
<g><path style="opacity:1" fill="#ffffff" d="M 151.5,49.5 C 151.5,49.8333 151.5,50.1667 151.5,50.5C 146.211,50.1186 141.211,51.1186 136.5,53.5C 139.31,54.7414 141.977,54.408 144.5,52.5C 146.946,53.9828 146.612,55.1495 143.5,56C 148.633,58.6417 153.967,59.1417 159.5,57.5C 159.5,58.5 159.5,59.5 159.5,60.5C 170.505,60.3335 181.505,60.5002 192.5,61C 193.883,62.4609 193.549,63.2942 191.5,63.5C 182.895,61.5289 173.895,60.8623 164.5,61.5C 149.397,60.0777 135.063,55.9111 121.5,49C 114.752,42.4388 113.086,43.6055 116.5,52.5C 114.438,50.5899 112.938,48.2565 112,45.5C 111.043,47.7092 109.876,47.5425 108.5,45C 110.795,44.0164 110.461,43.1831 107.5,42.5C 103.365,45.326 99.0313,47.6593 94.5,49.5C 99.2286,43.3005 105.562,39.9671 113.5,39.5C 123.077,41.4509 132.41,44.2842 141.5,48C 144.757,49.0429 148.09,49.5429 151.5,49.5 Z"/></g>
<g><path style="opacity:1" fill="#ffffff" d="M 165.5,48.5 C 166.376,48.3691 167.043,48.7025 167.5,49.5C 162.208,50.4948 156.875,50.8282 151.5,50.5C 151.5,50.1667 151.5,49.8333 151.5,49.5C 156.363,49.8195 161.03,49.4861 165.5,48.5 Z"/></g>
<g><path style="opacity:1" fill="#C7253E" d="M 165.5,48.5 C 161.03,49.4861 156.363,49.8195 151.5,49.5C 148.09,49.5429 144.757,49.0429 141.5,48C 132.41,44.2842 123.077,41.4509 113.5,39.5C 105.562,39.9671 99.2286,43.3005 94.5,49.5C 92.1528,52.8611 90.3194,56.5277 89,60.5C 87.5027,76.4172 88.836,92.0839 93,107.5C 97.9323,119.298 102.266,131.298 106,143.5C 107.515,149.097 108.181,154.764 108,160.5C 99.7259,142.952 91.7259,125.285 84,107.5C 81.3566,98.927 79.0232,90.2603 77,81.5C 75.9451,71.0324 76.6117,60.6991 79,50.5C 89.0627,29.1403 105.229,22.6403 127.5,31C 136.657,35.4115 145.657,40.0782 154.5,45C 158.021,46.6738 161.687,47.8404 165.5,48.5 Z"/></g>
<g><path style="opacity:1" fill="#ffffff" d="M 164.5,61.5 C 173.895,60.8623 182.895,61.5289 191.5,63.5C 190.833,63.5 190.167,63.5 189.5,63.5C 181.167,62.8333 172.833,62.1667 164.5,61.5 Z"/></g>
<g><path style="opacity:1" fill="#7A1CAC" d="M 164.5,61.5 C 172.833,62.1667 181.167,62.8333 189.5,63.5C 176.216,67.8508 162.549,69.5175 148.5,68.5C 135.282,67.8947 124.616,62.5614 116.5,52.5C 113.086,43.6055 114.752,42.4388 121.5,49C 135.063,55.9111 149.397,60.0777 164.5,61.5 Z"/></g>
<g><path style="opacity:1" fill="#ffffff" d="M 189.5,63.5 C 189.953,64.4584 190.619,65.2917 191.5,66C 184.728,66.3704 178.061,67.3704 171.5,69C 163.655,69.8223 155.989,69.6557 148.5,68.5C 162.549,69.5175 176.216,67.8508 189.5,63.5 Z"/></g>
<g><path style="opacity:1" fill="#C7253E" d="M 242.5,151.5 C 240.469,151.028 238.802,150.028 237.5,148.5C 238.885,147.426 240.051,146.093 241,144.5C 250.826,125.511 261.159,106.845 272,88.5C 272.584,85.7433 272.25,83.0766 271,80.5C 265.546,68.5957 260.38,56.5957 255.5,44.5C 258.639,37.3587 262.973,31.0254 268.5,25.5C 265.691,30.4454 262.857,35.4454 260,40.5C 259.333,42.8333 259.333,45.1667 260,47.5C 266.067,57.2433 271.734,67.2433 277,77.5C 279.503,74.4983 281.503,71.1649 283,67.5C 288.47,64.5093 293.304,60.6759 297.5,56C 291.099,49.7901 288.932,42.2901 291,33.5C 295.932,23.1198 304.099,19.2865 315.5,22C 328.587,28.4853 331.753,38.3187 325,51.5C 318.609,59.1299 310.776,61.1299 301.5,57.5C 298.552,63.4483 294.219,68.115 288.5,71.5C 277.535,99.7615 264.701,127.095 250,153.5C 247.567,152.521 245.067,151.855 242.5,151.5 Z"/></g>
<g><path style="opacity:1" fill="#ffffff" d="M 316.5,35.5 C 315.063,34.2745 313.396,33.2745 311.5,32.5C 310.304,32.8457 310.304,33.3457 311.5,34C 312.745,34.7914 314.078,35.2914 315.5,35.5C 318.813,38.4778 322.147,41.4778 325.5,44.5C 325,45.8805 324,46.5472 322.5,46.5C 318.866,45.3498 315.533,43.6831 312.5,41.5C 305.399,37.5449 305.066,37.8782 311.5,42.5C 315.127,44.7935 318.461,47.4602 321.5,50.5C 321,51.8805 320,52.5472 318.5,52.5C 315.361,51.4296 312.361,50.0962 309.5,48.5C 307.669,46.2513 305.336,45.0846 302.5,45C 304.66,46.332 306.66,47.832 308.5,49.5C 318.114,54.409 317.447,56.5757 306.5,56C 296.029,52.5237 291.863,45.357 294,34.5C 302.388,21.2692 312.054,20.2692 323,31.5C 324.411,33.6504 325.245,35.9837 325.5,38.5C 322.208,38.3531 319.208,37.3531 316.5,35.5 Z"/></g>
<g><path style="opacity:1" fill="#ffffff" d="M 309.5,48.5 C 308.833,48.5 308.5,48.8333 308.5,49.5C 306.66,47.832 304.66,46.332 302.5,45C 305.336,45.0846 307.669,46.2513 309.5,48.5 Z"/></g>
<g><path style="opacity:1" fill="#ffffff" d="M 312.5,41.5 C 311.833,41.5 311.5,41.8333 311.5,42.5C 305.066,37.8782 305.399,37.5449 312.5,41.5 Z"/></g>
<g><path style="opacity:1" fill="#ffffff" d="M 316.5,35.5 C 316.167,35.5 315.833,35.5 315.5,35.5C 314.078,35.2914 312.745,34.7914 311.5,34C 310.304,33.3457 310.304,32.8457 311.5,32.5C 313.396,33.2745 315.063,34.2745 316.5,35.5 Z"/></g>
<g><path style="opacity:1" fill="#ffffff" d="M 24.5,113.5 C 24.5,116.833 24.5,120.167 24.5,123.5C 23.1667,123.5 21.8333,123.5 20.5,123.5C 20.5,124.5 20.5,125.5 20.5,126.5C 19.5655,125.432 19.2322,124.099 19.5,122.5C 20.8333,122.5 22.1667,122.5 23.5,122.5C 23.19,119.287 23.5233,116.287 24.5,113.5 Z"/></g>
<g><path style="opacity:1" fill="#C7253E" d="M 284.5,95.5 C 287.266,100.191 289.932,105.024 292.5,110C 290.999,111.252 289.332,112.252 287.5,113C 289.035,113.496 290.535,113.33 292,112.5C 298.687,122.536 304.354,133.203 309,144.5C 309.659,149.05 307.826,152.384 303.5,154.5C 295.397,139.961 287.564,125.294 280,110.5C 280.301,105.208 281.801,100.208 284.5,95.5 Z"/></g>
<g><path style="opacity:1" fill="#7A1CAC" d="M 237.5,148.5 C 238.802,150.028 240.469,151.028 242.5,151.5C 236.184,150.576 231.017,152.576 227,157.5C 224.971,160.029 223.138,162.696 221.5,165.5C 219.045,164.09 218.045,161.923 218.5,159C 221.561,140.387 227.061,122.554 235,105.5C 239.195,91.1149 240.529,76.4482 239,61.5C 234.557,49.072 225.723,41.572 212.5,39C 208.167,38.3333 203.833,38.3333 199.5,39C 190.393,40.532 181.393,42.1986 172.5,44C 182.129,37.388 192.462,32.0547 203.5,28C 233.87,24.6969 249.87,38.3636 251.5,69C 249.955,87.9116 244.789,105.745 236,122.5C 231.959,129.417 227.792,136.25 223.5,143C 227.754,145.917 232.421,147.751 237.5,148.5 Z"/></g>
<g><path style="opacity:1" fill="#7A1CAC" d="M 249.5,159.5 C 248.713,161.104 247.38,161.771 245.5,161.5C 245.297,163.39 245.963,164.89 247.5,166C 244.918,165.745 242.252,165.578 239.5,165.5C 239.328,163.508 239.995,161.842 241.5,160.5C 240.311,159.571 238.978,159.238 237.5,159.5C 237.753,161.827 237.086,163.827 235.5,165.5C 240.138,168.243 245.138,169.91 250.5,170.5C 248.293,171.635 245.96,172.301 243.5,172.5C 242.833,172.5 242.167,172.5 241.5,172.5C 237.332,170.662 232.998,168.995 228.5,167.5C 232.442,156.693 239.442,154.027 249.5,159.5 Z"/></g>
<g><path style="opacity:1" fill="#C7253E" d="M 228.5,167.5 C 232.998,168.995 237.332,170.662 241.5,172.5C 234.439,185.475 227.272,198.475 220,211.5C 210.335,223.631 199.002,225.631 186,217.5C 184.08,214.661 182.413,211.661 181,208.5C 177.998,193.159 174.998,177.826 172,162.5C 168.889,154.234 164.222,152.901 158,158.5C 155.781,162.271 154.115,166.271 153,170.5C 151.399,182.177 149.732,193.844 148,205.5C 142.491,221.547 131.991,226.381 116.5,220C 111.287,216.454 107.12,211.954 104,206.5C 81.4259,157.686 58.5926,109.02 35.5,60.5C 35.2172,59.7109 34.7172,59.0442 34,58.5C 33.5003,66.8267 33.3336,75.16 33.5,83.5C 33.5,88.8333 33.5,94.1667 33.5,99.5C 32.5166,103.298 32.1832,107.298 32.5,111.5C 33.5,111.5 34.5,111.5 35.5,111.5C 36.1667,111.5 36.5,111.833 36.5,112.5C 36.5,116.167 36.5,119.833 36.5,123.5C 37.8333,123.5 39.1667,123.5 40.5,123.5C 39.4999,143.502 38.3333,163.502 37,183.5C 36.2496,184.126 35.4162,184.626 34.5,185C 34.8333,185.333 35.1667,185.667 35.5,186C 34.3789,192.079 33.5456,198.246 33,204.5C 32.3784,208.612 31.3784,212.612 30,216.5C 27.5891,206.611 25.7557,196.611 24.5,186.5C 25.6087,185.035 25.1087,184.035 23,183.5C 22.1427,164.495 21.3094,145.495 20.5,126.5C 20.5,125.5 20.5,124.5 20.5,123.5C 21.8333,123.5 23.1667,123.5 24.5,123.5C 24.5,120.167 24.5,116.833 24.5,113.5C 24.811,112.522 25.4777,111.855 26.5,111.5C 26.8333,108 27.1667,104.5 27.5,101C 26.623,78.5089 26.2896,56.0089 26.5,33.5C 22.1539,33.6657 17.8206,33.499 13.5,33C 8.3311,30.8003 8.3311,28.467 13.5,26C 18.8333,25.3333 24.1667,25.3333 29.5,26C 32,27.1667 33.8333,29 35,31.5C 62.5484,90.2623 90.8817,148.596 120,206.5C 129.458,213.444 135.458,211.111 138,199.5C 139.148,186.277 141.481,173.277 145,160.5C 147.237,152.83 151.737,146.997 158.5,143C 166.851,141.001 173.351,143.501 178,150.5C 180.59,155.272 182.59,160.272 184,165.5C 186.334,178.169 188.667,190.836 191,203.5C 192.985,210.36 197.151,212.193 203.5,209C 205.96,207.542 208.127,205.709 210,203.5C 215.898,191.263 222.065,179.263 228.5,167.5 Z"/></g>
<g><path style="opacity:1" fill="#ffffff" d="M 36.5,112.5 C 37.4794,115.625 37.8128,118.958 37.5,122.5C 38.791,122.263 39.791,122.596 40.5,123.5C 39.1667,123.5 37.8333,123.5 36.5,123.5C 36.5,119.833 36.5,116.167 36.5,112.5 Z"/></g>
<g><path style="opacity:1" fill="#C7253E" d="M 33.5,99.5 C 33.0157,103.827 33.6823,107.827 35.5,111.5C 34.5,111.5 33.5,111.5 32.5,111.5C 32.1832,107.298 32.5166,103.298 33.5,99.5 Z"/></g>
<g><path style="opacity:1" fill="#ffffff" d="M 35.5,60.5 C 34.8333,68.1667 34.1667,75.8333 33.5,83.5C 33.3336,75.16 33.5003,66.8267 34,58.5C 34.7172,59.0442 35.2172,59.7109 35.5,60.5 Z"/></g>
<g><path style="opacity:1" fill="#7A1CAC" d="M 243.5,172.5 C 245.96,172.301 248.293,171.635 250.5,170.5C 245.138,169.91 240.138,168.243 235.5,165.5C 237.086,163.827 237.753,161.827 237.5,159.5C 238.978,159.238 240.311,159.571 241.5,160.5C 239.995,161.842 239.328,163.508 239.5,165.5C 242.252,165.578 244.918,165.745 247.5,166C 245.963,164.89 245.297,163.39 245.5,161.5C 247.38,161.771 248.713,161.104 249.5,159.5C 263.228,167.081 277.895,169.581 293.5,167C 319.118,158.609 323.284,144.109 306,123.5C 305.312,122.668 305.479,122.002 306.5,121.5C 314.66,127.821 321.16,135.488 326,144.5C 327.173,157.964 321.339,167.131 308.5,172C 286.775,180.438 265.108,180.605 243.5,172.5 Z"/></g>
<g><path style="opacity:1" fill="#C7253E" d="M 317.5,174.5 C 318.496,174.414 319.329,174.748 320,175.5C 325.588,187.268 330.588,199.268 335,211.5C 335.667,212.833 335.667,214.167 335,215.5C 327.245,204.331 320.245,192.664 314,180.5C 313.219,179.056 313.386,177.723 314.5,176.5C 315.739,176.058 316.739,175.391 317.5,174.5 Z"/></g>
</svg>
